<svg width="17px" height="17px" viewBox="0 0 17 17" version="1.1" style="fill-rule:evenodd;clip-rule:evenodd;stroke-linejoin:round;stroke-miterlimit:2;">
    <g transform="matrix(1.28371,0,0,1.28371,-2.83947,-1.15368)">
        <path d="M8.833,1.431C12.194,1.431 14.923,4.159 14.923,7.52C14.923,10.881 12.194,13.61 8.833,13.61C5.472,13.61 2.744,10.881 2.744,7.52C2.744,4.159 5.472,1.431 8.833,1.431Z" style="fill:rgb(119,119,119);"/>
        <g transform="matrix(0.778992,0,0,0.778992,0.36153,3.61274)">
            <g transform="matrix(12,0,0,12,7.2745,9.32893)">
                <path d="M0.373,-0L0.285,-0L0.285,-0.56C0.264,-0.54 0.236,-0.52 0.201,-0.5C0.167,-0.479 0.136,-0.464 0.109,-0.454L0.109,-0.539C0.158,-0.562 0.201,-0.59 0.238,-0.623C0.275,-0.656 0.301,-0.688 0.316,-0.719L0.373,-0.719L0.373,-0Z" style="fill:white;fill-rule:nonzero;"/>
            </g>
        </g>
    </g>
</svg>
