<svg width="18px" height="17px" viewBox="0 0 18 17" version="1.1" style="fill-rule:evenodd;clip-rule:evenodd;stroke-linejoin:round;stroke-miterlimit:2;">
    <g transform="matrix(1.28371,0,0,1.28371,-2.83947,-1.15368)">
        <g transform="matrix(0.127185,0,0,0.127185,-2.39142,1.71938)">
            <path d="M66.24,29.404L88.88,50.804L128.648,5.275L139.452,14.811L90.17,75.034L55.433,40.234L66.239,29.404L66.24,29.404Z" style="fill:rgb(48,123,187);fill-opacity:0.75;"/>
        </g>
        <g transform="matrix(0.778992,0,0,0.778992,2.21192,0.898708)">
            <path d="M15.848,5.827C16.152,6.661 16.317,7.561 16.317,8.5C16.317,12.814 12.814,16.318 8.5,16.318C4.185,16.318 0.683,12.814 0.683,8.5C0.683,4.185 4.185,0.683 8.5,0.683C10.445,0.683 12.225,1.395 13.593,2.572L12.606,3.701C11.502,2.755 10.067,2.183 8.5,2.183C5.013,2.183 2.182,5.013 2.182,8.5C2.182,11.986 5.013,14.817 8.5,14.817C11.986,14.817 14.817,11.986 14.817,8.5C14.817,8.069 14.773,7.648 14.691,7.241L15.848,5.827Z" style="fill:rgb(85,85,85);fill-opacity:0.75;"/>
        </g>
    </g>
</svg>
