<svg width="17px" height="17px" viewBox="0 0 17 17" version="1.1" style="fill-rule:evenodd;clip-rule:evenodd;stroke-linejoin:round;stroke-miterlimit:2;">
    <g transform="matrix(1.28371,0,0,1.28371,-2.83947,-1.15368)">
        <path d="M8.833,1.431C12.194,1.431 14.923,4.159 14.923,7.52C14.923,10.881 12.194,13.61 8.833,13.61C5.472,13.61 2.744,10.881 2.744,7.52C2.744,4.159 5.472,1.431 8.833,1.431ZM8.833,2.599C11.549,2.599 13.754,4.804 13.754,7.52C13.754,10.236 11.549,12.441 8.833,12.441C6.117,12.441 3.912,10.236 3.912,7.52C3.912,4.804 6.117,2.599 8.833,2.599Z" style="fill:rgb(233,81,0);fill-opacity:0.6;"/>
    </g>
</svg>
