<svg width="17px" height="17px" viewBox="0 0 17 17" version="1.1" style="fill-rule:evenodd;clip-rule:evenodd;stroke-linejoin:round;stroke-miterlimit:2;">
    <g transform="matrix(0.727037,0,0,0.727037,-0.936665,9.44685)">
        <g transform="matrix(16.5054,0,0,16.5054,6.92537,4.92018)">
            <path d="M0.275,-0.166L0.32,-0.166C0.354,-0.166 0.384,-0.171 0.411,-0.182C0.438,-0.193 0.46,-0.207 0.479,-0.226C0.497,-0.245 0.511,-0.267 0.521,-0.293C0.53,-0.318 0.535,-0.346 0.535,-0.377C0.535,-0.407 0.53,-0.435 0.52,-0.461C0.51,-0.487 0.496,-0.509 0.478,-0.528C0.459,-0.547 0.437,-0.561 0.41,-0.572C0.383,-0.583 0.353,-0.588 0.32,-0.588L0.275,-0.588L0.275,-0.166ZM0.079,-0.754L0.369,-0.754C0.42,-0.754 0.468,-0.744 0.514,-0.723C0.559,-0.702 0.598,-0.675 0.632,-0.641C0.665,-0.606 0.692,-0.566 0.711,-0.521C0.73,-0.475 0.74,-0.427 0.74,-0.377C0.74,-0.328 0.731,-0.28 0.712,-0.235C0.693,-0.189 0.666,-0.149 0.633,-0.114C0.599,-0.079 0.56,-0.052 0.515,-0.031C0.47,-0.01 0.421,0 0.369,0L0.079,0L0.079,-0.754Z" style="fill-rule:nonzero;"/>
        </g>
    </g>
    <g transform="matrix(1.28371,0,0,1.28371,-2.83947,-1.15368)">
        <path d="M8.833,1.431C12.194,1.431 14.923,4.159 14.923,7.52C14.923,10.881 12.194,13.61 8.833,13.61C5.472,13.61 2.744,10.881 2.744,7.52C2.744,4.159 5.472,1.431 8.833,1.431ZM8.833,2.599C11.549,2.599 13.754,4.804 13.754,7.52C13.754,10.236 11.549,12.441 8.833,12.441C6.117,12.441 3.912,10.236 3.912,7.52C3.912,4.804 6.117,2.599 8.833,2.599Z"/>
    </g>
</svg>
