<svg width="17px" height="17px" viewBox="0 0 17 17" version="1.1" style="fill-rule:evenodd;clip-rule:evenodd;stroke-linejoin:round;stroke-miterlimit:2;">
    <path d="M16.245,9.566C15.724,13.377 12.453,16.317 8.5,16.317C4.186,16.317 0.683,12.814 0.683,8.5C0.683,4.186 4.186,0.683 8.5,0.683C9.391,0.683 10.246,0.832 11.045,1.107L11.045,2.718C10.266,2.375 9.405,2.184 8.5,2.184C5.015,2.184 2.186,5.013 2.186,8.498C2.186,11.983 5.015,14.812 8.5,14.812C10.607,14.812 12.475,13.778 13.622,12.189L16.245,9.566Z"/>
    <g transform="matrix(0.246421,0,0,0.246421,-1.60479,-3.26758)">
        <path d="M74.9,38.9L62.2,51.6C61.8,52 61.3,52.2 60.7,52.2C60.4,52.2 60.2,52.1 59.9,52C59,51.6 58.6,51 58.6,50L58.6,43.7L53.3,43.7C46.2,43.7 41.4,45.1 38.8,48C36.2,51 35.4,56.2 36.4,63.6C36.5,64.1 36.2,64.5 35.7,64.7C35.5,64.7 35.4,64.8 35.3,64.8C34.9,64.8 34.7,64.7 34.4,64.4C34.2,64.1 33.9,63.7 33.7,63.4C33.5,63.1 33,62.3 32.4,61.1C31.8,60 31.2,58.9 30.8,57.8C30.3,56.7 29.9,55.5 29.5,54C29.1,52.5 28.9,51.2 28.9,50C28.9,48.9 28.9,47.9 29,47C29.1,46.1 29.2,45.1 29.5,44C29.7,42.9 30,42 30.4,41.1C30.8,40.2 31.3,39.3 32,38.4C32.7,37.5 33.4,36.7 34.3,36C35.2,35.3 36.2,34.6 37.4,34C38.6,33.4 40,32.8 41.5,32.4C43,32 44.8,31.6 46.8,31.4C48.8,31.2 51,31 53.3,31L58.6,31L58.6,24.7C58.6,23.8 59,23.1 59.9,22.7C60.2,22.6 60.5,22.5 60.7,22.5C61.3,22.5 61.8,22.7 62.2,23.1L74.9,35.8C75.3,36.2 75.5,36.7 75.5,37.3C75.5,37.9 75.3,38.5 74.9,38.9Z" style="fill-rule:nonzero;"/>
    </g>
</svg>
