<svg width="17px" height="17px" viewBox="0 0 17 17" version="1.1" xmlns="http://www.w3.org/2000/svg" style="fill-rule:evenodd;clip-rule:evenodd;stroke-linejoin:round;stroke-miterlimit:2;">
    <g transform="matrix(0.727037,0,0,0.727037,1.641,9.79485)">
        <g transform="matrix(16.5054,0,0,16.5054,6.92537,4.92018)">
            <path d="M0.243,-0.513L0.243,0L0.062,0L0.062,-0.513L0.243,-0.513ZM0.05,-0.71C0.05,-0.724 0.053,-0.737 0.058,-0.75C0.063,-0.762 0.071,-0.773 0.08,-0.782C0.089,-0.791 0.1,-0.799 0.113,-0.804C0.125,-0.809 0.138,-0.812 0.152,-0.812C0.166,-0.812 0.179,-0.809 0.192,-0.804C0.204,-0.799 0.215,-0.791 0.224,-0.782C0.233,-0.773 0.241,-0.762 0.246,-0.75C0.251,-0.737 0.254,-0.724 0.254,-0.71C0.254,-0.696 0.251,-0.683 0.246,-0.671C0.241,-0.658 0.233,-0.647 0.224,-0.638C0.215,-0.629 0.204,-0.621 0.192,-0.616C0.179,-0.611 0.166,-0.608 0.152,-0.608C0.138,-0.608 0.125,-0.611 0.113,-0.616C0.1,-0.621 0.089,-0.629 0.08,-0.638C0.071,-0.647 0.063,-0.658 0.058,-0.671C0.053,-0.683 0.05,-0.696 0.05,-0.71Z" style="fill-rule:nonzero;"/>
        </g>
    </g>
    <g transform="matrix(1.28371,0,0,1.28371,-2.83947,-1.15368)">
        <path d="M8.833,1.431C12.194,1.431 14.923,4.159 14.923,7.52C14.923,10.881 12.194,13.61 8.833,13.61C5.472,13.61 2.744,10.881 2.744,7.52C2.744,4.159 5.472,1.431 8.833,1.431ZM8.833,2.599C11.549,2.599 13.754,4.804 13.754,7.52C13.754,10.236 11.549,12.441 8.833,12.441C6.117,12.441 3.912,10.236 3.912,7.52C3.912,4.804 6.117,2.599 8.833,2.599Z"/>
    </g>
</svg>
