<svg width="40px" height="17px" viewBox="0 0 40 17" version="1.1" style="fill-rule:evenodd;clip-rule:evenodd;stroke-linecap:round;stroke-miterlimit:2;">
    <g transform="matrix(1.036,0,0,1.35571,-0.766036,-3.59938)">
        <path d="M37.951,6.308C37.951,4.864 36.416,3.692 34.527,3.692L5.562,3.692C3.673,3.692 2.138,4.864 2.138,6.308L2.138,11.541C2.138,12.985 3.673,14.158 5.562,14.158L34.527,14.158C36.416,14.158 37.951,12.985 37.951,11.541L37.951,6.308Z" style="fill:none;stroke:black;stroke-opacity:0.48;stroke-width:0.69px;stroke-dasharray:0.69,1.38,0,0;"/>
    </g>
    <g transform="matrix(1.00463,0,0,1.00463,-2.99336,7.94206)">
        <g transform="matrix(11.5792,0,0,11.5792,6.92537,4.92018)">
            <path d="M0.409,0L0.053,0L0.053,-0.754L0.256,-0.754L0.256,-0.181L0.409,-0.181L0.409,0Z" style="fill-rule:nonzero;"/>
        </g>
        <g transform="matrix(11.5792,0,0,11.5792,11.7538,4.92018)">
            <rect x="0.053" y="-0.754" width="0.204" height="0.754" style="fill-rule:nonzero;"/>
        </g>
        <g transform="matrix(11.5792,0,0,11.5792,15.3327,4.92018)">
            <path d="M0.053,0L0.053,-0.754L0.247,-0.754L0.349,-0.489C0.355,-0.474 0.361,-0.456 0.368,-0.436C0.375,-0.415 0.383,-0.392 0.391,-0.366L0.412,-0.299C0.405,-0.365 0.399,-0.421 0.395,-0.467C0.391,-0.514 0.389,-0.553 0.389,-0.584L0.389,-0.754L0.583,-0.754L0.583,0L0.389,0L0.287,-0.277C0.276,-0.307 0.266,-0.335 0.258,-0.361C0.249,-0.386 0.241,-0.411 0.235,-0.435C0.239,-0.382 0.242,-0.335 0.244,-0.296C0.246,-0.257 0.247,-0.222 0.247,-0.192L0.247,0L0.053,0Z" style="fill-rule:nonzero;"/>
        </g>
        <g transform="matrix(11.5792,0,0,11.5792,22.6997,4.92018)">
            <path d="M0.606,0L0.386,0L0.251,-0.348L0.256,0L0.053,0L0.053,-0.754L0.256,-0.754L0.251,-0.431L0.371,-0.754L0.586,-0.754L0.423,-0.39L0.606,0Z" style="fill-rule:nonzero;"/>
        </g>
        <g transform="matrix(12.6233,0,0,12.6233,31.0563,4.01852)">
            <path d="M0.423,-0.258L0.297,-0.435L0.397,-0.503L0.569,-0.258L0.397,-0.012L0.294,-0.084L0.423,-0.258ZM0.174,-0.258L0.048,-0.435L0.148,-0.503L0.32,-0.258L0.148,-0.012L0.045,-0.084L0.174,-0.258Z" style="fill-rule:nonzero;"/>
        </g>
    </g>
</svg>
