<svg width="17px" height="17px" viewBox="0 0 17 17" version="1.1" xmlns="http://www.w3.org/2000/svg" style="fill-rule:evenodd;clip-rule:evenodd;stroke-linejoin:round;stroke-miterlimit:2;">
    <g transform="matrix(0.727037,0,0,0.727037,-0.200998,9.44685)">
        <g transform="matrix(16.5054,0,0,16.5054,6.92537,4.92018)">
            <path d="M0.208,-0.253L0.208,-0.448C0.216,-0.447 0.223,-0.446 0.23,-0.445C0.237,-0.444 0.243,-0.443 0.249,-0.443C0.267,-0.443 0.284,-0.446 0.3,-0.451C0.316,-0.456 0.33,-0.462 0.342,-0.471C0.353,-0.48 0.362,-0.49 0.369,-0.503C0.376,-0.515 0.379,-0.528 0.379,-0.543C0.379,-0.563 0.372,-0.58 0.359,-0.595C0.346,-0.61 0.328,-0.617 0.305,-0.617C0.284,-0.617 0.268,-0.61 0.256,-0.596C0.243,-0.582 0.237,-0.564 0.237,-0.541L0.038,-0.541C0.038,-0.575 0.045,-0.606 0.059,-0.635C0.072,-0.663 0.091,-0.688 0.116,-0.709C0.14,-0.729 0.169,-0.746 0.202,-0.758C0.235,-0.769 0.27,-0.775 0.309,-0.775C0.348,-0.775 0.384,-0.769 0.417,-0.756C0.449,-0.743 0.477,-0.725 0.5,-0.703C0.523,-0.681 0.541,-0.656 0.554,-0.627C0.567,-0.598 0.573,-0.569 0.573,-0.538C0.573,-0.438 0.513,-0.367 0.392,-0.325L0.392,-0.253L0.208,-0.253ZM0.188,-0.096C0.188,-0.112 0.191,-0.127 0.197,-0.142C0.203,-0.156 0.211,-0.168 0.222,-0.179C0.233,-0.19 0.245,-0.198 0.26,-0.204C0.274,-0.21 0.289,-0.213 0.305,-0.213C0.321,-0.213 0.336,-0.21 0.351,-0.204C0.365,-0.198 0.377,-0.19 0.388,-0.179C0.399,-0.168 0.407,-0.156 0.413,-0.142C0.419,-0.127 0.422,-0.112 0.422,-0.096C0.422,-0.08 0.419,-0.065 0.413,-0.051C0.407,-0.036 0.399,-0.024 0.388,-0.013C0.377,-0.002 0.365,0.006 0.351,0.012C0.336,0.018 0.321,0.021 0.305,0.021C0.289,0.021 0.274,0.018 0.26,0.012C0.245,0.006 0.233,-0.002 0.222,-0.013C0.211,-0.024 0.203,-0.036 0.197,-0.051C0.191,-0.065 0.188,-0.08 0.188,-0.096Z" style="fill-rule:nonzero;"/>
        </g>
    </g>
    <g transform="matrix(1.28371,0,0,1.28371,-2.83947,-1.15368)">
        <path d="M8.833,1.431C12.194,1.431 14.923,4.159 14.923,7.52C14.923,10.881 12.194,13.61 8.833,13.61C5.472,13.61 2.744,10.881 2.744,7.52C2.744,4.159 5.472,1.431 8.833,1.431ZM8.833,2.599C11.549,2.599 13.754,4.804 13.754,7.52C13.754,10.236 11.549,12.441 8.833,12.441C6.117,12.441 3.912,10.236 3.912,7.52C3.912,4.804 6.117,2.599 8.833,2.599Z"/>
    </g>
</svg>
